<mxfile host="app.diagrams.net" modified="2023-06-14T12:32:07.466Z" agent="Mozilla/5.0 (Windows NT 10.0; Win64; x64) AppleWebKit/537.36 (KHTML, like Gecko) Chrome/113.0.0.0 Safari/537.36 OPR/99.0.0.0" etag="NQKY4eVaTSABNDy9VH2f" version="21.3.8" type="github">
  <diagram id="R2lEEEUBdFMjLlhIrx00" name="Page-1">
    <mxGraphModel dx="4904" dy="5509" grid="1" gridSize="10" guides="1" tooltips="1" connect="1" arrows="1" fold="1" page="1" pageScale="1" pageWidth="2000" pageHeight="1300" math="0" shadow="0" extFonts="Permanent Marker^https://fonts.googleapis.com/css?family=Permanent+Marker">
      <root>
        <mxCell id="0" />
        <mxCell id="1" parent="0" />
        <mxCell id="OTomQQxV_BPXcIShUFri-71" value="User Repository" style="shape=datastore;whiteSpace=wrap;html=1;" vertex="1" parent="1">
          <mxGeometry x="-1065" y="-3160" width="60" height="60" as="geometry" />
        </mxCell>
        <mxCell id="OTomQQxV_BPXcIShUFri-72" style="edgeStyle=orthogonalEdgeStyle;rounded=0;orthogonalLoop=1;jettySize=auto;html=1;exitX=0.5;exitY=1;exitDx=0;exitDy=0;" edge="1" parent="1" source="OTomQQxV_BPXcIShUFri-67" target="OTomQQxV_BPXcIShUFri-71">
          <mxGeometry relative="1" as="geometry" />
        </mxCell>
        <mxCell id="OTomQQxV_BPXcIShUFri-79" value="Progress Repository" style="shape=datastore;whiteSpace=wrap;html=1;" vertex="1" parent="1">
          <mxGeometry x="-1300" y="-2740" width="60" height="60" as="geometry" />
        </mxCell>
        <mxCell id="OTomQQxV_BPXcIShUFri-80" style="edgeStyle=orthogonalEdgeStyle;rounded=0;orthogonalLoop=1;jettySize=auto;html=1;entryX=0.5;entryY=0;entryDx=0;entryDy=0;" edge="1" parent="1" source="OTomQQxV_BPXcIShUFri-76" target="OTomQQxV_BPXcIShUFri-79">
          <mxGeometry relative="1" as="geometry" />
        </mxCell>
        <mxCell id="OTomQQxV_BPXcIShUFri-90" value="" style="group" vertex="1" connectable="0" parent="1">
          <mxGeometry x="-430" y="-3810" width="380" height="220" as="geometry" />
        </mxCell>
        <mxCell id="OTomQQxV_BPXcIShUFri-113" value="" style="group" vertex="1" connectable="0" parent="OTomQQxV_BPXcIShUFri-90">
          <mxGeometry width="380" height="198.00000000000006" as="geometry" />
        </mxCell>
        <mxCell id="OTomQQxV_BPXcIShUFri-91" value="&lt;p style=&quot;line-height: 10%;&quot;&gt;&lt;font style=&quot;font-size: 18px;&quot;&gt;Testing and Quizzes Module&lt;/font&gt;&lt;br&gt;&lt;/p&gt;" style="rounded=0;whiteSpace=wrap;html=1;verticalAlign=middle;fontStyle=0" vertex="1" parent="OTomQQxV_BPXcIShUFri-113">
          <mxGeometry width="380" height="32.56" as="geometry" />
        </mxCell>
        <mxCell id="OTomQQxV_BPXcIShUFri-92" value="&lt;p style=&quot;line-height: 70%;&quot;&gt;&lt;/p&gt;&lt;div style=&quot;font-size: 14px; line-height: 120%;&quot;&gt;&lt;font style=&quot;font-size: 14px;&quot;&gt;&lt;b&gt;Provides functionality for creating, taking, and reviewing tests and quizzes.&lt;/b&gt;&lt;/font&gt;&lt;/div&gt;&lt;div style=&quot;font-size: 14px; line-height: 120%;&quot;&gt;&lt;br&gt;&lt;/div&gt;&lt;p&gt;&lt;/p&gt;" style="rounded=0;whiteSpace=wrap;html=1;" vertex="1" parent="OTomQQxV_BPXcIShUFri-113">
          <mxGeometry y="32.56" width="380" height="57.44" as="geometry" />
        </mxCell>
        <mxCell id="OTomQQxV_BPXcIShUFri-93" value="&lt;div&gt;&lt;b&gt;Create Test: POST /api/tests&lt;/b&gt;&lt;/div&gt;&lt;div&gt;&lt;b&gt;Get Test by ID: GET /api/tests/{id}&lt;/b&gt;&lt;/div&gt;&lt;div&gt;&lt;b&gt;Solve Test: POST /api/tests/{testId}/submit&lt;/b&gt;&lt;/div&gt;&lt;div&gt;&lt;b&gt;Get Test Results: GET /api/tests/{testId}/results&lt;/b&gt;&lt;/div&gt;&lt;div&gt;&lt;b&gt;Delete Test: DELETE /api/tests/{testId}&lt;/b&gt;&lt;/div&gt;&lt;div&gt;&lt;b&gt;Get Test Questions: GET /api/tests/{testId}/questions&lt;/b&gt;&lt;/div&gt;&lt;div&gt;&lt;b&gt;Get Question by ID: GET /api/tests/{testId}/questions/{questionId}&lt;/b&gt;&lt;/div&gt;" style="rounded=0;whiteSpace=wrap;html=1;" vertex="1" parent="OTomQQxV_BPXcIShUFri-113">
          <mxGeometry y="70.4" width="380" height="127.60000000000004" as="geometry" />
        </mxCell>
        <mxCell id="OTomQQxV_BPXcIShUFri-101" style="edgeStyle=orthogonalEdgeStyle;rounded=0;orthogonalLoop=1;jettySize=auto;html=1;exitX=0.5;exitY=1;exitDx=0;exitDy=0;" edge="1" parent="OTomQQxV_BPXcIShUFri-113" source="OTomQQxV_BPXcIShUFri-92" target="OTomQQxV_BPXcIShUFri-92">
          <mxGeometry relative="1" as="geometry" />
        </mxCell>
        <mxCell id="OTomQQxV_BPXcIShUFri-111" style="edgeStyle=orthogonalEdgeStyle;rounded=0;orthogonalLoop=1;jettySize=auto;html=1;entryX=0.75;entryY=1;entryDx=0;entryDy=0;" edge="1" parent="1" source="OTomQQxV_BPXcIShUFri-99" target="OTomQQxV_BPXcIShUFri-93">
          <mxGeometry relative="1" as="geometry" />
        </mxCell>
        <mxCell id="OTomQQxV_BPXcIShUFri-99" value="TestResult Repository" style="shape=datastore;whiteSpace=wrap;html=1;" vertex="1" parent="1">
          <mxGeometry x="-220" y="-3540" width="60" height="60" as="geometry" />
        </mxCell>
        <mxCell id="OTomQQxV_BPXcIShUFri-112" style="edgeStyle=orthogonalEdgeStyle;rounded=0;orthogonalLoop=1;jettySize=auto;html=1;entryX=0.25;entryY=1;entryDx=0;entryDy=0;" edge="1" parent="1" source="OTomQQxV_BPXcIShUFri-100" target="OTomQQxV_BPXcIShUFri-93">
          <mxGeometry relative="1" as="geometry" />
        </mxCell>
        <mxCell id="OTomQQxV_BPXcIShUFri-100" value="Test Repository" style="shape=datastore;whiteSpace=wrap;html=1;" vertex="1" parent="1">
          <mxGeometry x="-320" y="-3540" width="60" height="60" as="geometry" />
        </mxCell>
        <mxCell id="OTomQQxV_BPXcIShUFri-102" value="Educational Material Repository" style="shape=datastore;whiteSpace=wrap;html=1;" vertex="1" parent="1">
          <mxGeometry x="-1780" y="-3160" width="80" height="80" as="geometry" />
        </mxCell>
        <mxCell id="OTomQQxV_BPXcIShUFri-103" value="EduMaterial&lt;br&gt;Cache" style="shape=datastore;whiteSpace=wrap;html=1;" vertex="1" parent="1">
          <mxGeometry x="-1610" y="-3170" width="70" height="60" as="geometry" />
        </mxCell>
        <mxCell id="OTomQQxV_BPXcIShUFri-104" value="" style="group" vertex="1" connectable="0" parent="1">
          <mxGeometry x="-1950" y="-3470" width="540" height="220.79999999999995" as="geometry" />
        </mxCell>
        <mxCell id="OTomQQxV_BPXcIShUFri-87" value="&lt;p style=&quot;line-height: 10%;&quot;&gt;&lt;font size=&quot;1&quot; style=&quot;&quot;&gt;&lt;b style=&quot;font-size: 18px;&quot;&gt;Educational Materials Module&lt;/b&gt;&lt;/font&gt;&lt;br&gt;&lt;/p&gt;" style="rounded=0;whiteSpace=wrap;html=1;verticalAlign=middle;fontStyle=0;container=0;" vertex="1" parent="OTomQQxV_BPXcIShUFri-104">
          <mxGeometry width="540" height="38.47999999999999" as="geometry" />
        </mxCell>
        <mxCell id="OTomQQxV_BPXcIShUFri-88" value="&lt;b&gt;&lt;font style=&quot;font-size: 14px;&quot;&gt;Manages educational materials, including creation, review, and commenting.&lt;/font&gt;&lt;/b&gt;" style="rounded=0;whiteSpace=wrap;html=1;container=0;" vertex="1" parent="OTomQQxV_BPXcIShUFri-104">
          <mxGeometry y="38.48000000000002" width="540" height="31.52" as="geometry" />
        </mxCell>
        <mxCell id="OTomQQxV_BPXcIShUFri-89" value="&lt;div&gt;&lt;b&gt;Get Educational Materials: GET /api/educational-content&lt;/b&gt;&lt;/div&gt;&lt;div&gt;&lt;b&gt;Create Educational Material: POST /api/educational-content&lt;/b&gt;&lt;/div&gt;&lt;div&gt;&lt;b&gt;Update Educational Material: PUT /api/educational-content/{id}&lt;/b&gt;&lt;/div&gt;&lt;div&gt;&lt;b&gt;Get Material by ID: GET /api/educational-content/{id}&lt;/b&gt;&lt;/div&gt;&lt;div&gt;&lt;b&gt;Get Material Comments: GET /api/educational-content/{id}/comments&lt;/b&gt;&lt;/div&gt;&lt;div&gt;&lt;b&gt;Add Comment: POST /api/educational-content/{id}/comments&lt;/b&gt;&lt;/div&gt;&lt;div&gt;&lt;b&gt;Like Material: PUT /api/educational-content/{id}/likes&lt;/b&gt;&lt;/div&gt;&lt;div&gt;&lt;b&gt;Unlike Material: DELETE /api/educational-content/{id}/likes&lt;/b&gt;&lt;/div&gt;&lt;div&gt;&lt;b&gt;Delete Material: DELETE /api/educational-content/{id}&lt;/b&gt;&lt;/div&gt;&lt;div&gt;&lt;b&gt;Review Material: POST /api/educational-content/{id}/review&lt;/b&gt;&lt;/div&gt;" style="rounded=0;whiteSpace=wrap;html=1;container=0;" vertex="1" parent="OTomQQxV_BPXcIShUFri-104">
          <mxGeometry y="70" width="540" height="150.79999999999998" as="geometry" />
        </mxCell>
        <mxCell id="OTomQQxV_BPXcIShUFri-106" style="edgeStyle=orthogonalEdgeStyle;rounded=0;orthogonalLoop=1;jettySize=auto;html=1;exitX=0.25;exitY=1;exitDx=0;exitDy=0;" edge="1" parent="1" source="OTomQQxV_BPXcIShUFri-89" target="OTomQQxV_BPXcIShUFri-102">
          <mxGeometry relative="1" as="geometry" />
        </mxCell>
        <mxCell id="OTomQQxV_BPXcIShUFri-105" style="edgeStyle=orthogonalEdgeStyle;rounded=0;orthogonalLoop=1;jettySize=auto;html=1;exitX=0.75;exitY=1;exitDx=0;exitDy=0;" edge="1" parent="1" source="OTomQQxV_BPXcIShUFri-89" target="OTomQQxV_BPXcIShUFri-103">
          <mxGeometry relative="1" as="geometry" />
        </mxCell>
        <mxCell id="OTomQQxV_BPXcIShUFri-108" value="" style="group" vertex="1" connectable="0" parent="1">
          <mxGeometry x="-1170" y="-3450" width="270" height="162" as="geometry" />
        </mxCell>
        <mxCell id="OTomQQxV_BPXcIShUFri-68" value="&lt;p style=&quot;line-height: 10%; font-size: 18px;&quot;&gt;&lt;br&gt;&lt;strong style=&quot;border: 0px solid rgb(217, 217, 227); box-sizing: border-box; --tw-border-spacing-x: 0; --tw-border-spacing-y: 0; --tw-translate-x: 0; --tw-translate-y: 0; --tw-rotate: 0; --tw-skew-x: 0; --tw-skew-y: 0; --tw-scale-x: 1; --tw-scale-y: 1; --tw-pan-x: ; --tw-pan-y: ; --tw-pinch-zoom: ; --tw-scroll-snap-strictness: proximity; --tw-gradient-from-position: ; --tw-gradient-via-position: ; --tw-gradient-to-position: ; --tw-ordinal: ; --tw-slashed-zero: ; --tw-numeric-figure: ; --tw-numeric-spacing: ; --tw-numeric-fraction: ; --tw-ring-inset: ; --tw-ring-offset-width: 0px; --tw-ring-offset-color: #fff; --tw-ring-color: rgba(69,89,164,.5); --tw-ring-offset-shadow: 0 0 transparent; --tw-ring-shadow: 0 0 transparent; --tw-shadow: 0 0 transparent; --tw-shadow-colored: 0 0 transparent; --tw-blur: ; --tw-brightness: ; --tw-contrast: ; --tw-grayscale: ; --tw-hue-rotate: ; --tw-invert: ; --tw-saturate: ; --tw-sepia: ; --tw-drop-shadow: ; --tw-backdrop-blur: ; --tw-backdrop-brightness: ; --tw-backdrop-contrast: ; --tw-backdrop-grayscale: ; --tw-backdrop-hue-rotate: ; --tw-backdrop-invert: ; --tw-backdrop-opacity: ; --tw-backdrop-saturate: ; --tw-backdrop-sepia: ; font-weight: 600; margin-top: 1.25em; margin-bottom: 1.25em; font-family: Söhne, ui-sans-serif, system-ui, -apple-system, &amp;quot;Segoe UI&amp;quot;, Roboto, Ubuntu, Cantarell, &amp;quot;Noto Sans&amp;quot;, sans-serif, &amp;quot;Helvetica Neue&amp;quot;, Arial, &amp;quot;Apple Color Emoji&amp;quot;, &amp;quot;Segoe UI Emoji&amp;quot;, &amp;quot;Segoe UI Symbol&amp;quot;, &amp;quot;Noto Color Emoji&amp;quot;; font-variant-ligatures: normal; font-variant-caps: normal; letter-spacing: normal; orphans: 2; text-align: left; text-indent: 0px; text-transform: none; widows: 2; word-spacing: 0px; -webkit-text-stroke-width: 0px; text-decoration-thickness: initial; text-decoration-style: initial; text-decoration-color: initial;&quot;&gt;User Module&lt;/strong&gt;&lt;br&gt;&lt;/p&gt;" style="rounded=0;whiteSpace=wrap;html=1;verticalAlign=middle;fontStyle=0" vertex="1" parent="OTomQQxV_BPXcIShUFri-108">
          <mxGeometry width="270" height="26.64" as="geometry" />
        </mxCell>
        <mxCell id="OTomQQxV_BPXcIShUFri-70" value="&lt;b&gt;Handles user registration, login, and profile management.&lt;/b&gt;" style="rounded=0;whiteSpace=wrap;html=1;" vertex="1" parent="OTomQQxV_BPXcIShUFri-108">
          <mxGeometry y="26.639999999999873" width="270" height="30.96" as="geometry" />
        </mxCell>
        <mxCell id="OTomQQxV_BPXcIShUFri-67" value="&lt;div&gt;&lt;b&gt;Register: &lt;/b&gt;POST /api/users/register&lt;/div&gt;&lt;div&gt;Login: POST /api/users/login&lt;/div&gt;&lt;div&gt;Logout: POST /api/users/logout&lt;/div&gt;&lt;div&gt;Get User Data: GET /api/users/{userId}&lt;/div&gt;&lt;div&gt;Add Email to User: PUT /api/users/add-email&lt;/div&gt;&lt;div&gt;Verify Email: POST /api/users/verify-email&lt;/div&gt;" style="rounded=0;whiteSpace=wrap;html=1;" vertex="1" parent="OTomQQxV_BPXcIShUFri-108">
          <mxGeometry y="57.59999999999991" width="270" height="104.4" as="geometry" />
        </mxCell>
        <mxCell id="OTomQQxV_BPXcIShUFri-110" value="" style="group" vertex="1" connectable="0" parent="1">
          <mxGeometry x="-1420" y="-2940" width="300" height="90" as="geometry" />
        </mxCell>
        <mxCell id="OTomQQxV_BPXcIShUFri-74" value="&lt;p style=&quot;line-height: 10%; font-size: 16px;&quot;&gt;&lt;b&gt;&lt;br&gt;Progress and Achievements Module&lt;/b&gt;&lt;br&gt;&lt;/p&gt;" style="rounded=0;whiteSpace=wrap;html=1;verticalAlign=middle;fontStyle=0;container=0;" vertex="1" parent="OTomQQxV_BPXcIShUFri-110">
          <mxGeometry width="300" height="26.64" as="geometry" />
        </mxCell>
        <mxCell id="OTomQQxV_BPXcIShUFri-75" value="&lt;b&gt;Tracks user progress and achievements base on test results and reviewed materials.&lt;/b&gt;" style="rounded=0;whiteSpace=wrap;html=1;container=0;" vertex="1" parent="OTomQQxV_BPXcIShUFri-110">
          <mxGeometry y="26.6400000000001" width="300" height="30.959999999999997" as="geometry" />
        </mxCell>
        <mxCell id="OTomQQxV_BPXcIShUFri-76" value="&lt;div&gt;&lt;b&gt;Get Progres: &lt;/b&gt;GET /api/progress&lt;/div&gt;" style="rounded=0;whiteSpace=wrap;html=1;container=0;" vertex="1" parent="OTomQQxV_BPXcIShUFri-110">
          <mxGeometry y="57.59999999999991" width="300" height="32.4" as="geometry" />
        </mxCell>
        <mxCell id="OTomQQxV_BPXcIShUFri-124" value="" style="group" vertex="1" connectable="0" parent="1">
          <mxGeometry x="-800" y="-3200" width="360" height="132.39999999999998" as="geometry" />
        </mxCell>
        <mxCell id="OTomQQxV_BPXcIShUFri-83" value="&lt;p style=&quot;line-height: 10%; font-size: 18px;&quot;&gt;Learning Reminder Module&lt;br&gt;&lt;/p&gt;" style="rounded=0;whiteSpace=wrap;html=1;verticalAlign=middle;fontStyle=0;container=0;" vertex="1" parent="OTomQQxV_BPXcIShUFri-124">
          <mxGeometry width="360" height="26.64" as="geometry" />
        </mxCell>
        <mxCell id="OTomQQxV_BPXcIShUFri-84" value="&lt;font style=&quot;font-size: 14px;&quot;&gt;&lt;b&gt;Sends learning reminders to users based on their preferences.&lt;/b&gt;&lt;/font&gt;" style="rounded=0;whiteSpace=wrap;html=1;container=0;" vertex="1" parent="OTomQQxV_BPXcIShUFri-124">
          <mxGeometry y="26.639999999999986" width="360" height="43.36" as="geometry" />
        </mxCell>
        <mxCell id="OTomQQxV_BPXcIShUFri-85" value="&lt;div&gt;&lt;b&gt;Get Reminders for Current User: GET /api/reminders&lt;/b&gt;&lt;/div&gt;&lt;div&gt;&lt;b&gt;Create Reminder: POST /api/reminders&lt;/b&gt;&lt;/div&gt;&lt;div&gt;&lt;b&gt;Delete Reminder: DELETE /api/reminders/{id}&lt;/b&gt;&lt;/div&gt;" style="rounded=0;whiteSpace=wrap;html=1;container=0;" vertex="1" parent="OTomQQxV_BPXcIShUFri-124">
          <mxGeometry y="70" width="360" height="62.4" as="geometry" />
        </mxCell>
        <mxCell id="OTomQQxV_BPXcIShUFri-98" style="edgeStyle=orthogonalEdgeStyle;rounded=0;orthogonalLoop=1;jettySize=auto;html=1;exitX=0.5;exitY=1;exitDx=0;exitDy=0;" edge="1" parent="OTomQQxV_BPXcIShUFri-124" source="OTomQQxV_BPXcIShUFri-85" target="OTomQQxV_BPXcIShUFri-85">
          <mxGeometry relative="1" as="geometry" />
        </mxCell>
        <mxCell id="OTomQQxV_BPXcIShUFri-131" value="" style="group" vertex="1" connectable="0" parent="1">
          <mxGeometry x="-1540" y="-3840" width="420" height="162" as="geometry" />
        </mxCell>
        <mxCell id="OTomQQxV_BPXcIShUFri-95" value="&lt;p style=&quot;line-height: 10%; font-size: 18px;&quot;&gt;&lt;b&gt;&lt;br&gt;Admin Module&lt;/b&gt;&lt;br&gt;&lt;/p&gt;" style="rounded=0;whiteSpace=wrap;html=1;verticalAlign=middle;fontStyle=0;container=0;" vertex="1" parent="OTomQQxV_BPXcIShUFri-131">
          <mxGeometry width="420" height="26.64" as="geometry" />
        </mxCell>
        <mxCell id="OTomQQxV_BPXcIShUFri-96" value="&lt;font style=&quot;font-size: 14px;&quot;&gt;&lt;b&gt;Handles administrative tasks such as user management and content approval.&lt;/b&gt;&lt;/font&gt;" style="rounded=0;whiteSpace=wrap;html=1;container=0;" vertex="1" parent="OTomQQxV_BPXcIShUFri-131">
          <mxGeometry y="26.639999999999986" width="420" height="43.36" as="geometry" />
        </mxCell>
        <mxCell id="OTomQQxV_BPXcIShUFri-97" value="&lt;div&gt;&lt;b&gt;Get Users: GET /api/users&lt;/b&gt;&lt;/div&gt;&lt;div&gt;&lt;b&gt;Delete User: DELETE /api/users/{userId}&lt;/b&gt;&lt;/div&gt;&lt;div&gt;&lt;b&gt;Approve Educational Material: POST /api/educationalMaterials/{materialId}/approve&lt;/b&gt;&lt;/div&gt;&lt;div&gt;&lt;b&gt;Reject Educational Material: POST /api/educationalMaterials/{materialId}/reject&lt;/b&gt;&lt;/div&gt;" style="rounded=0;whiteSpace=wrap;html=1;container=0;" vertex="1" parent="OTomQQxV_BPXcIShUFri-131">
          <mxGeometry y="70" width="420" height="92" as="geometry" />
        </mxCell>
        <mxCell id="OTomQQxV_BPXcIShUFri-133" style="edgeStyle=orthogonalEdgeStyle;rounded=0;orthogonalLoop=1;jettySize=auto;html=1;entryX=0.5;entryY=0;entryDx=0;entryDy=0;" edge="1" parent="1" source="OTomQQxV_BPXcIShUFri-89" target="OTomQQxV_BPXcIShUFri-74">
          <mxGeometry relative="1" as="geometry" />
        </mxCell>
        <mxCell id="OTomQQxV_BPXcIShUFri-134" style="edgeStyle=orthogonalEdgeStyle;rounded=0;orthogonalLoop=1;jettySize=auto;html=1;entryX=0;entryY=0.25;entryDx=0;entryDy=0;" edge="1" parent="1" source="OTomQQxV_BPXcIShUFri-74" target="OTomQQxV_BPXcIShUFri-67">
          <mxGeometry relative="1" as="geometry" />
        </mxCell>
        <mxCell id="OTomQQxV_BPXcIShUFri-135" style="edgeStyle=orthogonalEdgeStyle;rounded=0;orthogonalLoop=1;jettySize=auto;html=1;entryX=0.5;entryY=1;entryDx=0;entryDy=0;" edge="1" parent="1" source="OTomQQxV_BPXcIShUFri-74" target="OTomQQxV_BPXcIShUFri-93">
          <mxGeometry relative="1" as="geometry" />
        </mxCell>
        <mxCell id="OTomQQxV_BPXcIShUFri-136" style="edgeStyle=orthogonalEdgeStyle;rounded=0;orthogonalLoop=1;jettySize=auto;html=1;entryX=1;entryY=0.25;entryDx=0;entryDy=0;" edge="1" parent="1" source="OTomQQxV_BPXcIShUFri-84" target="OTomQQxV_BPXcIShUFri-67">
          <mxGeometry relative="1" as="geometry" />
        </mxCell>
        <mxCell id="OTomQQxV_BPXcIShUFri-137" style="edgeStyle=orthogonalEdgeStyle;rounded=0;orthogonalLoop=1;jettySize=auto;html=1;entryX=1;entryY=0.5;entryDx=0;entryDy=0;" edge="1" parent="1" source="OTomQQxV_BPXcIShUFri-68" target="OTomQQxV_BPXcIShUFri-96">
          <mxGeometry relative="1" as="geometry" />
        </mxCell>
        <mxCell id="OTomQQxV_BPXcIShUFri-138" style="edgeStyle=orthogonalEdgeStyle;rounded=0;orthogonalLoop=1;jettySize=auto;html=1;entryX=0;entryY=0.25;entryDx=0;entryDy=0;" edge="1" parent="1" source="OTomQQxV_BPXcIShUFri-70" target="OTomQQxV_BPXcIShUFri-93">
          <mxGeometry relative="1" as="geometry" />
        </mxCell>
        <mxCell id="OTomQQxV_BPXcIShUFri-140" style="edgeStyle=orthogonalEdgeStyle;rounded=0;orthogonalLoop=1;jettySize=auto;html=1;exitX=0.5;exitY=0;exitDx=0;exitDy=0;entryX=0.5;entryY=1;entryDx=0;entryDy=0;" edge="1" parent="1" source="OTomQQxV_BPXcIShUFri-139" target="OTomQQxV_BPXcIShUFri-85">
          <mxGeometry relative="1" as="geometry" />
        </mxCell>
        <mxCell id="OTomQQxV_BPXcIShUFri-139" value="Reminder Repository" style="shape=datastore;whiteSpace=wrap;html=1;" vertex="1" parent="1">
          <mxGeometry x="-650" y="-3010" width="60" height="60" as="geometry" />
        </mxCell>
        <mxCell id="OTomQQxV_BPXcIShUFri-141" style="edgeStyle=orthogonalEdgeStyle;rounded=0;orthogonalLoop=1;jettySize=auto;html=1;entryX=0.5;entryY=0;entryDx=0;entryDy=0;" edge="1" parent="1" source="OTomQQxV_BPXcIShUFri-97" target="OTomQQxV_BPXcIShUFri-87">
          <mxGeometry relative="1" as="geometry" />
        </mxCell>
      </root>
    </mxGraphModel>
  </diagram>
</mxfile>
